<?xml version="1.0" standalone="no"?><!DOCTYPE svg PUBLIC "-//W3C//DTD SVG 1.1//EN" "http://www.w3.org/Graphics/SVG/1.1/DTD/svg11.dtd"><svg width="512px" height="512px" version="1.1" xmlns="http://www.w3.org/2000/svg" xmlns:xlink="http://www.w3.org/1999/xlink" xml:space="preserve" style="fill-rule:evenodd;clip-rule:evenodd;stroke-linejoin:round;stroke-miterlimit:1.41421;"><g><g id="Version_01" transform="matrix(5.51899,0,0,5.51899,-999.889,-3506.13)"><g transform="matrix(1,0,0,1,-270.15,-152.185)"><path d="M530.612,795.472c0,-1.96842 -1.59572,-3.56414 -3.56414,-3.56414c-1.96842,0 -3.56414,1.59572 -3.56414,3.56414l0,8.74923c0,1.96842 1.59572,3.56414 3.56414,3.56414c1.96842,0 3.56414,-1.59572 3.56414,-3.56414l0,-8.74923ZM472.049,795.472c0,-1.96842 -1.59572,-3.56414 -3.56414,-3.56414c-1.96842,0 -3.56414,1.59572 -3.56414,3.56414l0,8.74923c0,1.96842 1.59572,3.56414 3.56414,3.56414c1.96842,0 3.56414,-1.59572 3.56414,-3.56414l0,-8.74923Z" style="fill:#2a373e;"/></g><g transform="matrix(0.11171,0,0,0.11171,-68.2999,594.557)"><path d="M3039.61,615.559l0,162.679c0,0.627005 -0.0471168,1.243 -0.138488,1.84636c0.0924809,3.45355 0.138488,6.92189 0.138488,10.401c0,22.7106 -1.96043,44.9633 -5.7213,66.5981c-0.0289745,0.166679 -0.0590939,0.333214 -0.0902681,0.499614c-0.669455,3.57336 -1.82539,7.08409 -2.57769,10.6179c-5.22232,24.5307 -12.8174,48.0748 -22.2814,70.7253c-1.97122,4.71781 -3.06057,9.71795 -5.21146,14.3386c-61.4139,131.934 -195.171,223.393 -350.29,223.393c-213.277,0 -386.172,-172.895 -386.172,-386.172c0,-3.47908 0.046007,-6.94742 0.138488,-10.401c-0.0913711,-0.603355 -0.138488,-1.21936 -0.138488,-1.84636l1.36424e-12,-295.871c0,-6.76401 5.48332,-12.2473 12.2473,-12.2473l50.4147,0l0,40.9168c0,31.4342 25.4825,56.9167 56.9167,56.9167c31.4342,0 56.9167,-25.4825 56.9167,-56.9167l0,-40.9168l410.402,0l0,42.1183c0,31.4342 25.4825,56.9167 56.9167,56.9167c31.4342,0 56.9167,-25.4825 56.9167,-56.9167l0,-42.1183l59.3665,0c6.76401,0 12.2473,5.48332 12.2473,12.2473l-4.54747e-13,133.192Z" style="fill:url(#tag1);"/></g><g transform="matrix(0.11171,0,0,0.11171,-105.293,558.741)"><path d="M3028.1,1494.86c-14.2807,1.59375 -28.7952,2.41213 -43.5016,2.41213c-213.277,0 -386.172,-172.119 -386.172,-384.438c0,-3.46346 0.046007,-6.91622 0.138488,-10.3543c-0.0913711,-0.600646 -0.138488,-1.21388 -0.138488,-1.83807l0,-297.66c0,-6.76401 5.48332,-12.2473 12.2473,-12.2473l50.4147,0l0,40.9168c0,19.3179 9.62396,36.3879 24.3379,46.6762l0,222.314c0,0.624189 0.0471168,1.23742 0.138488,1.83807c-0.0924809,3.43805 -0.138488,6.89081 -0.138488,10.3543c0,197.679 149.874,360.511 342.674,382.026Z" style="fill:#2a373e;fill-opacity:0.1;"/></g><g transform="matrix(0.11171,0,0,0.11171,-68.2999,594.557)"><path d="M3003.74,953.25c-22.6643,14.188 -52.2824,22.2333 -81.8946,17.1987c-29.8647,45.9497 -66.311,71.333 -102.673,77.2318c-33.2001,5.38589 -58.7812,-5.60813 -68.8245,-37.5118c-18.7419,31.1648 -42.8965,55.6358 -75.0426,60.8507c-44.7938,7.26668 -83.5507,-21.6015 -60.113,-123.839l36.7656,-160.108l74.305,-12.0541l-40.3537,177.997c-13.6839,59.0096 -2.28928,62.5696 5.61551,61.2873c24.2413,-3.93256 44.3498,-46.677 64.7709,-100.83l33.7325,-148.799l74.305,-12.0541l-40.3537,177.997c-12.8864,57.2576 -3.87023,62.8261 6.14249,61.2018c11.5937,-1.88079 26.3914,-14.0167 42.2993,-39.3133c-5.85424,-6.0814 -9.68604,-13.0317 -11.1394,-21.9905c-3.93256,-24.2413 15.2087,-46.2764 40.2194,-45.4661c11.3922,-36.4628 20.0205,-83.2943 23.4352,-142.26l61.0729,-16.9387c-4.32454,86.6974 -20.244,155.264 -43.813,206.683c34.2974,4.71232 69.9373,-19.4075 91.6829,-75.3981c0.201218,-0.0218656 -0.198153,0.00914076 0.00611669,-0.00145905c-5.87059,33.7461 -16.1215,65.9876 -30.1453,96.117Z" style="fill:url(#tag2);"/></g></g></g><defs><linearGradient id="tag1" x1="0" y1="0" x2="1" y2="0" gradientUnits="userSpaceOnUse" gradientTransform="matrix(772.344,0,0,706.538,2267.27,823.389)"><stop offset="0%" style="stop-color:#cbcbca;stop-opacity:1"/><stop offset="100%" style="stop-color:#fff;stop-opacity:1"/></linearGradient><linearGradient id="tag2" x1="0" y1="0" x2="1" y2="0" gradientUnits="userSpaceOnUse" gradientTransform="matrix(421.892,0,0,346.23,2608.13,898.965)"><stop offset="0%" style="stop-color:#637280;stop-opacity:1"/><stop offset="100%" style="stop-color:#2a373e;stop-opacity:1"/></linearGradient></defs></svg>